<?xml version="1.0" encoding="utf-8"?>
<!-- Generator: Adobe Illustrator 24.0.2, SVG Export Plug-In . SVG Version: 6.00 Build 0)  -->
<svg version="1.1" id="pigeon" xmlns="http://www.w3.org/2000/svg" xmlns:xlink="http://www.w3.org/1999/xlink" x="0px" y="0px"
	 viewBox="0 0 150 212.5" style="enable-background:new 0 0 150 212.5;" xml:space="preserve">
<style type="text/css">
	.st0{fill:#9933FF;}
</style>
<title>squab-air</title>
<g id="avatar">
	<g id="body">
		<path id="face" d="M138.4,135.2c0.7,24-8.6,41.6-30.8,51.7c2.6,2.8,3.4,6.1,7,8c-0.1,2-0.9,3.9-2.2,5.4c-1.5,1.7-3.6,2.9-5.9,3.2
			c-2.5,0-8.5-0.8-11.6-3.2c-0.4,2.7,0,5.4,1.1,7.9c-1.4,1.6-3.2,2.9-5.2,3.6c-3,1-6.2,0.8-9.1-0.4c-3.3-1.7-4.4-4.1-6.8-6.2
			c-2.1,1.5-3.2,4.6-6.4,6c-4.8,1-9.7-0.3-13.3-3.5c0.8-1.7,0.9-5.8,0.8-7.9c-3.5,1.6-6.6,3.6-11.8,3.9c-2.6-0.8-4.9-2.4-6.4-4.7
			c-1-1.5-1.7-3.2-1.9-5c3.6-1.6,4.1-5,6.7-6.9c-22.4-10.1-31.7-27.8-31.2-52.1l-4.2,3.3c-0.6,0.6-1.6,0.9-2.5,0.6
			c-0.9-0.4-1.2-1.5-1.3-2c-0.9-3.6-6.2-23-1.4-40.9c3.9-14.7,14.2-21.1,15.7-22c5.4-3.3,8.7,0.7,9.9-0.4c1.8-1.6,1.8-5.4,1.6-8
			C27.9,58.3,26,51,25.4,43.6C24.1,28.9,30.4,17.5,42.2,9c8.1-5.8,17.4-8.3,27.1-8.8c10.4-0.5,20.8,0,30.5,4.4
			c13.4,6,24,17.4,25,33.2c0.6,9.7-3.8,24.9-4.1,29c-0.2,2.7-0.7,7.3,1.9,8.1c0.9,0.2,5.5-3.6,10.8-1.4c3.8,1.6,12.5,12.7,15,24.1
			c2.4,10.7,1.8,26.7-1.5,35.8c-0.5,1.4-1.4,4.2-2.6,4.6C142.3,137.5,140.3,136.6,138.4,135.2z M89.2,51.6c-2-1.9-3.6-3.3-6.3-4.1
			c-3.6-5.2-11-4.4-13.7-0.4c-3,0.7-5.6,2.2-7.6,4.5c1.2,5.6,7.3,13.3,13.2,17C81.5,63.6,87,58,89.2,51.6z M49.3,46.5
			c-4.4-23.9-21.3-10-12.5,5.8C41.8,61.1,47.5,52.4,49.3,46.5z M113.1,53.3c10.5-13.7-6.4-31.3-12.5-5.8
			C102.4,53.4,105.8,60.3,113.1,53.3z"/>
	</g>
	<circle id="element" class="st0" cx="75.4" cy="124.5" r="17.2"/>
</g>
</svg>
