<svg xmlns="http://www.w3.org/2000/svg" viewBox="0 0 512.002 512.002" fill="#e5e3df">
  <path d="M228.242 108.792l-48.176-12.909c-5.266-1.411-11.173-.242-15.416 3.05-3.227 2.502-5.236 6.047-5.673 9.917l-5.337 19.919c-1.573 3.644-1.586 7.801.006 11.644a17.075 17.075 0 002.025 3.573c-5.1 10.618-10.914 23.713-17.017 38.282a2.405 2.405 0 01-.021.049c-5.331 12.728-10.879 26.572-16.359 40.867-18.682 5.068-42.505 26.934-49.436 52.794L26.98 447.128c-4.413 16.473 6.424 33.74 24.157 38.491l46.947 12.58.002.001 46.945 12.579a35.67 35.67 0 009.229 1.224c5.351 0 10.613-1.23 15.372-3.648 7.852-3.99 13.38-10.678 15.565-18.832l6.308-23.543.003-.01.002-.009 39.546-147.587c6.93-25.861-2.77-56.708-16.414-70.439 3.437-21.645 6.295-42.565 8.314-60.632.006-.052.013-.104.018-.157 1.01-9.053 1.807-17.38 2.362-24.725 4.329-2.121 7.763-6.016 9.107-11.027l5.832-21.763c2.425-9.063-2.973-18.411-12.033-20.839zm-62.364 375.552c-.697 2.599-2.581 4.794-5.307 6.179-3.085 1.567-6.766 1.9-10.365.936l-46.944-12.578-.002-.001-46.947-12.58c-6.961-1.865-11.547-8.275-10.015-13.997l3.723-13.895 119.58 32.042-3.723 13.894zm8.9-33.212L55.197 419.09 89.57 290.813l119.58 32.042-34.372 128.277zm38.498-147.877l-117.482-31.48c8.671-17.117 26.267-29.503 34.042-29.699a10.001 10.001 0 009.099-6.451 1489.126 1489.126 0 0115.591-39.444h47.256c-1.648 13.427-3.697 28.106-6.052 43.269l-2.445-.655a9.998 9.998 0 00-12.247 7.071c-1.429 5.335 1.736 10.818 7.071 12.247l11.479 3.076c6.515 5.207 14.69 23.797 13.688 42.066zm2.457-159.31c-.079.001-.157.01-.236.013-.074.002-.146.007-.219.012-.243.015-.484.038-.723.07-.083.011-.165.021-.247.034a10.01 10.01 0 00-.71.141c-.068.016-.138.028-.206.046-.287.074-.57.159-.848.258-.09.032-.177.071-.267.105-.187.073-.373.148-.555.231a9.348 9.348 0 00-.333.164 10.321 10.321 0 00-.783.437 9.656 9.656 0 00-.466.31c-.088.062-.177.121-.263.186-.203.152-.399.312-.59.479-.03.026-.062.049-.091.076-.225.202-.439.415-.646.636-.043.046-.082.095-.124.142a9.86 9.86 0 00-.454.542c-.059.076-.115.155-.172.233a9.527 9.527 0 00-.789 1.272c-.058.111-.116.221-.17.334-.075.16-.143.324-.21.488-.05.121-.104.24-.148.363a10.01 10.01 0 00-.441 1.655c-.012.065-.03.13-.041.195-.007.042-.008.087-.015.131-.044.302-.079.604-.096.905-.364 6.547-.996 14.238-1.859 22.779h-41.044c5.17-11.881 9.983-22.289 14.13-30.493.131-.26.248-.53.357-.804.019-.049.045-.097.064-.146.02-.054.034-.111.054-.165a10.254 10.254 0 00.453-1.679c.022-.124.034-.248.051-.372.025-.184.05-.367.064-.55.01-.117.014-.234.019-.351.009-.196.014-.391.011-.585-.002-.104-.004-.208-.009-.311a9.773 9.773 0 00-.05-.643c-.009-.083-.017-.166-.028-.249a9.71 9.71 0 00-.133-.759l-.024-.125c-.069-.302-.151-.6-.247-.893l-.019-.052a9.878 9.878 0 00-.294-.768c-.04-.092-.084-.182-.126-.273a9.232 9.232 0 00-.712-1.281 10.847 10.847 0 00-.211-.316c-.11-.155-.228-.304-.347-.453-.066-.083-.128-.169-.198-.25a9.892 9.892 0 00-.594-.635c-.063-.062-.13-.118-.195-.178a10.016 10.016 0 00-.501-.439c-.074-.06-.151-.118-.227-.176a9.719 9.719 0 00-.559-.398c-.069-.045-.137-.091-.208-.135-.063-.04-.124-.085-.188-.123l4.454-16.606 42.409 11.363-4.45 16.608z"/>
  <path d="M164.797 231.165l-.234-.062c-5.335-1.422-10.816 1.749-12.239 7.085-1.424 5.337 1.748 10.816 7.085 12.239l.234.063c.863.23 1.73.34 2.583.34 4.419 0 8.463-2.953 9.656-7.426 1.423-5.337-1.749-10.816-7.085-12.239zM164.826 352.121c-5.036-8.723-13.167-14.961-22.896-17.568a37.782 37.782 0 00-9.775-1.292c-17.024 0-31.993 11.495-36.401 27.953-2.607 9.728-1.27 19.889 3.766 28.611 5.036 8.722 13.167 14.961 22.895 17.567a37.781 37.781 0 009.775 1.291c17.023 0 31.993-11.494 36.402-27.953 2.608-9.727 1.27-19.888-3.766-28.609zm-15.551 23.434c-2.071 7.73-9.096 13.128-17.084 13.128-1.541 0-3.088-.205-4.6-.61a17.588 17.588 0 01-10.75-8.249 17.583 17.583 0 01-1.768-13.435c2.07-7.73 9.095-13.129 17.083-13.129 1.541 0 3.088.205 4.6.61a17.59 17.59 0 0110.751 8.25 17.6 17.6 0 011.768 13.435zM485.012 447.127l-45.859-171.149c-6.93-25.862-30.753-47.728-49.435-52.794-5.48-14.295-11.028-28.14-16.359-40.867l-.021-.05c-6.103-14.569-11.917-27.664-17.018-38.281a17.109 17.109 0 002.024-3.572c1.593-3.843 1.579-8.001.007-11.645l-5.338-19.919c-.437-3.869-2.445-7.414-5.672-9.916-4.243-3.293-10.15-4.462-15.417-3.05l-48.177 12.908a16.898 16.898 0 00-10.322 7.932c-2.275 3.941-2.882 8.525-1.707 12.907l5.83 21.764c1.344 5.011 4.778 8.906 9.108 11.026.554 7.341 1.35 15.663 2.359 24.711.006.064.015.128.022.192 2.018 18.061 4.875 38.972 8.311 60.61-13.644 13.73-23.343 44.579-16.414 70.439l45.859 171.148c2.186 8.155 7.714 14.843 15.566 18.832 4.759 2.419 10.021 3.648 15.372 3.648 3.072 0 6.175-.405 9.228-1.224l93.895-25.159c8.372-2.243 15.508-7.357 20.093-14.399 4.807-7.382 6.25-15.937 4.065-24.092zM297.769 144.084a11.114 11.114 0 00-.969-.111c-.118-.008-.236-.016-.356-.02-.063-.002-.124-.009-.186-.01l-4.449-16.608 42.409-11.36 4.451 16.606c-.064.039-.125.083-.188.123l-.211.137c-.19.126-.375.258-.555.395-.077.06-.155.118-.231.179-.17.139-.334.284-.494.433-.066.062-.136.121-.201.184-.205.202-.403.413-.59.631-.073.085-.139.176-.209.264-.115.144-.229.289-.336.438-.076.106-.146.215-.218.325a9.283 9.283 0 00-.706 1.268c-.044.094-.09.187-.13.282a10.46 10.46 0 00-.287.751c-.008.023-.018.046-.025.069-.096.292-.177.589-.246.889-.01.046-.017.092-.026.138a9.774 9.774 0 00-.132.746c-.011.085-.018.171-.028.256a10.316 10.316 0 00-.06.951 14.057 14.057 0 00.03.936c.015.183.04.365.065.548.017.124.029.249.052.372a9.767 9.767 0 00.435 1.624c.026.073.046.15.073.223.012.031.028.061.04.091.116.296.243.585.385.864 4.147 8.203 8.958 18.607 14.127 30.485H307.96c-.863-8.542-1.496-16.233-1.859-22.779a10.174 10.174 0 00-.097-.913c-.006-.041-.008-.082-.014-.122-.011-.066-.029-.132-.042-.198a9.74 9.74 0 00-.442-1.658c-.041-.114-.091-.224-.137-.337-.071-.175-.144-.35-.224-.519-.05-.105-.105-.208-.159-.312-.09-.173-.183-.344-.281-.511a9.51 9.51 0 00-.521-.785c-.056-.076-.109-.153-.167-.227a10.31 10.31 0 00-.444-.531c-.048-.053-.092-.108-.14-.16-.201-.215-.41-.422-.628-.618-.075-.068-.156-.129-.233-.195a9.041 9.041 0 00-.432-.35c-.124-.095-.254-.182-.383-.271-.105-.071-.209-.142-.316-.209a9.595 9.595 0 00-.46-.273c-.086-.048-.173-.093-.26-.139a10.44 10.44 0 00-.531-.261l-.165-.069a9.834 9.834 0 00-1.895-.59c-.119-.025-.239-.051-.361-.072zm14.638 117.105l11.478-3.075c5.335-1.429 8.501-6.913 7.071-12.247-1.43-5.334-6.915-8.502-12.247-7.071l-2.445.655c-2.354-15.164-4.403-29.844-6.052-43.269h47.257a1485.694 1485.694 0 0115.591 39.444 10 10 0 009.099 6.45c7.774.196 25.369 12.582 34.04 29.7l-117.482 31.48c-1.002-18.271 7.174-36.861 13.69-42.067zm24.807 189.944l-34.372-128.278 119.58-32.042 34.372 128.278-119.58 32.042zm126.974 9.174c-1.889 2.9-4.91 5.029-8.508 5.993l-93.895 25.159c-3.599.964-7.278.632-10.364-.936-2.726-1.385-4.61-3.579-5.307-6.179l-3.723-13.894 119.58-32.042 3.723 13.895c.696 2.6.162 5.443-1.506 8.004z"/>
  <path d="M359.665 238.178c-1.429-5.334-6.909-8.503-12.246-7.073l-.233.063c-5.335 1.429-8.501 6.912-7.072 12.246 1.196 4.469 5.236 7.416 9.653 7.416.855 0 1.727-.111 2.593-.343l.233-.063c5.335-1.429 8.501-6.912 7.072-12.246zM416.238 361.214c-4.409-16.459-19.379-27.954-36.402-27.954-3.288 0-6.577.435-9.775 1.292-9.729 2.606-17.859 8.845-22.896 17.568-5.035 8.722-6.373 18.883-3.767 28.612 4.41 16.456 19.38 27.951 36.402 27.952h.002c3.287 0 6.576-.435 9.774-1.291 9.728-2.606 17.859-8.845 22.895-17.567 5.036-8.723 6.374-18.884 3.767-28.612zm-21.086 18.611a17.59 17.59 0 01-10.75 8.249c-1.511.405-3.059.61-4.599.61h-.001c-7.987 0-15.014-5.399-17.085-13.128a17.592 17.592 0 011.768-13.435 17.594 17.594 0 0110.751-8.25 17.779 17.779 0 014.6-.61c7.987 0 15.013 5.399 17.084 13.13a17.59 17.59 0 01-1.768 13.434zM255.996 0c-5.523 0-10 4.477-10 10v26.764c0 5.523 4.477 10 10 10 5.522 0 10-4.477 10-10V10c0-5.523-4.477-10-10-10zM222.552 50.193l-13.596-23.178c-2.794-4.764-8.922-6.361-13.685-3.566-4.764 2.794-6.36 8.921-3.566 13.685l13.596 23.178a9.996 9.996 0 0013.685 3.566c4.764-2.795 6.36-8.922 3.566-13.685zM316.723 23.449c-4.765-2.795-10.892-1.197-13.686 3.566l-13.596 23.178c-2.794 4.764-1.198 10.891 3.566 13.685a9.998 9.998 0 0013.686-3.566l13.596-23.178c2.794-4.764 1.197-10.891-3.566-13.685z"/>
</svg>
