<svg xmlns="http://www.w3.org/2000/svg" viewBox="0 0 511.999 511.999">
  <path d="M443.681 102.186H141.9a8.205 8.205 0 100 16.41h293.576V335.35H76.522V118.595h37.281a8.205 8.205 0 100-16.41H68.318a8.205 8.205 0 00-8.205 8.205v233.164a8.204 8.204 0 008.205 8.205h375.364a8.205 8.205 0 008.205-8.205V110.391a8.205 8.205 0 00-8.206-8.205z"/>
  <path d="M503.795 374.678h-12.574V188.523a8.205 8.205 0 10-16.41 0v186.155H37.188V99.186c0-10.987 8.933-19.924 19.914-19.924h397.795c10.98 0 19.914 8.938 19.914 19.924v61.242a8.205 8.205 0 1016.41 0V99.186c0-20.035-16.295-36.334-36.323-36.334H57.102c-20.03 0-36.323 16.299-36.323 36.334v275.492H8.205A8.205 8.205 0 000 382.883v25.754c0 22.337 18.172 40.51 40.51 40.51h25.674a8.205 8.205 0 100-16.41H40.51c-13.289 0-24.1-10.812-24.1-24.1v-17.549l183.597.005c1.955 15.783 15.44 28.043 31.744 28.043h48.499c16.302 0 29.788-12.26 31.744-28.043l183.597-.005v17.549c0 13.288-10.812 24.1-24.1 24.1H93.534a8.205 8.205 0 100 16.41H471.49c22.338 0 40.51-18.173 40.51-40.51v-25.754a8.206 8.206 0 00-8.205-8.205zM280.25 402.726h-48.5c-7.228 0-13.323-4.947-15.079-11.633h78.657c-1.755 6.686-7.851 11.633-15.078 11.633z"/>
</svg>
