<svg xmlns="http://www.w3.org/2000/svg" viewBox="0 0 512 512" fill="#e5e3df">
  <path d="M411.836 243.442L320.238 70.048a12.498 12.498 0 00-11.035-6.672h-.037a12.496 12.496 0 00-11.037 6.608l-83.93 156.66a7.486 7.486 0 00.646 8.077l20.544 26.942a12.481 12.481 0 009.47 4.92 12.465 12.465 0 009.823-4.168l32.481-36.348 63.137 74.536a12.51 12.51 0 009.447 4.428h.108c3.607 0 7.033-1.551 9.413-4.266l37.42-42.667c.215-.246.414-.505.596-.777l4.157-6.22a7.488 7.488 0 00.395-7.659zm-16.732 5.15l-35.217 40.157-63.12-74.517a12.52 12.52 0 00-9.388-4.426l-.166-.001a12.514 12.514 0 00-9.336 4.178l-32.381 36.235-15.82-20.747 79.476-148.345 87.357 165.365-1.405 2.101z"/>
  <path d="M510.535 430.257L451.738 318.96a7.488 7.488 0 00-10.119-3.123 7.488 7.488 0 00-3.123 10.119l56.894 107.695H295.928c-.236-1.162-86.906-165.627-86.906-165.627l12.882-24.045 13.485 17.685a12.483 12.483 0 009.47 4.92 12.465 12.465 0 009.823-4.168l32.481-36.348 63.137 74.536a12.51 12.51 0 009.447 4.428h.108a12.511 12.511 0 009.488-4.352l34.418-40.47 13.991 26.484a7.487 7.487 0 0010.119 3.123 7.488 7.488 0 003.123-10.119L320.237 70.044a12.5 12.5 0 00-11.035-6.672h-.037a12.495 12.495 0 00-11.037 6.609l-78.631 146.776-5.297 9.887-.001.003-13.612 25.408-40.471-76.607a12.497 12.497 0 00-11.04-6.673h-.036c-.155 0-.308.01-.462.016-.127.004-.255.005-.381.013-.115.008-.228.023-.342.034-.17.016-.34.029-.508.052-.151.02-.3.05-.449.076-.125.022-.252.039-.376.065a12.495 12.495 0 00-8.519 6.354l-27.41 51.166-46.102 86.056-.022.046-62.97 117.541c-2.098 3.917-1.988 8.532.294 12.345 2.283 3.813 6.299 6.089 10.743 6.089h486.927c4.429 0 8.438-2.265 10.724-6.058 2.288-3.793 2.417-8.396.348-12.313zM231.944 225.238l77.208-144.111 87.073 164.827-36.367 42.76-63.091-74.482a12.515 12.515 0 00-9.388-4.426l-.166-.001a12.518 12.518 0 00-9.336 4.178l-32.381 36.235-15.82-20.747 2.268-4.233zM16.639 433.649l56.706-105.85 21.862 18.312a12.493 12.493 0 008.046 2.944 12.48 12.48 0 009.337-4.207l25.075-28.104 16.15 16.024a7.49 7.49 0 0010.55-10.632l-17.989-17.848a12.589 12.589 0 00-9.2-3.627 12.568 12.568 0 00-8.962 4.18L103 333.1l-22.43-18.787 68.457-127.785 88.338 167.22-21.326 19.655-19.509-19.357a7.49 7.49 0 00-10.549 10.632l21.176 21.011a12.487 12.487 0 008.819 3.641c3.037 0 6.079-1.104 8.486-3.323l20.144-18.566 34.977 66.208H16.639z"/>
</svg>
