<svg viewBox="0 0 512 512" xmlns="http://www.w3.org/2000/svg" fill="#e5e3df">
  <path d="M130.14 367.523c-3.898 3.903-3.898 10.23 0 14.141 3.91 3.899 10.243 3.899 14.153 0 3.898-3.91 3.898-10.238 0-14.14a10.003 10.003 0 00-14.152 0zm0 0M330.344 511.95c5.523 0 10-4.477 10-10 0-5.524-4.477-10-10-10h-40c-5.52 0-10 4.476-10 10 0 5.523 4.48 10 10 10zm0 0"/>
  <path d="M409.559 17.54L66.504 360.452v.004l-.012.012a10.534 10.534 0 00-1.957 2.781L.97 497.656c-3.13 6.614 1.715 14.293 9.039 14.293h240.34c5.523 0 10-4.476 10-10 0-5.523-4.477-10-10-10H54.378l94.196-44.683a10.275 10.275 0 002.766-1.946c.008-.007.015-.011.023-.02l.004-.003c13.442-13.434 325.778-325.633 343.051-342.899 23.441-23.441 23.445-61.414 0-84.863-23.395-23.383-61.461-23.379-84.86.004zm7.062 134.343l-56.574-56.574 21.219-21.211 56.578 56.574zm-327.8 301.594L58.382 423.03l18.16-38.394 50.648 50.64zm55.472-29.383l-56.574-56.567L345.902 109.45l21.223 21.223L158.43 339.234c-3.903 3.903-3.907 10.235-.004 14.141 3.902 3.906 10.234 3.91 14.144.004l208.7-208.563 21.207 21.207zm-94.992 18.14l20.336 20.34-38.621 18.32zm430.976-353.98l-28.289 28.277-56.578-56.574 28.29-28.273c15.597-15.594 40.98-15.594 56.573-.004 15.63 15.625 15.633 40.949.004 56.574zm0 0"/>
</svg>
