<svg xmlns="http://www.w3.org/2000/svg" viewBox="0 0 512 512" fill="#e5e3df">
  <path d="M256 103.443c-34.598 0-67.22 11.293-94.339 32.658a7.738 7.738 0 009.577 12.155c24.363-19.194 53.673-29.339 84.762-29.339 75.588 0 137.084 61.495 137.084 137.084S331.588 393.084 256 393.084 118.916 331.589 118.916 256c0-31.51 10.392-61.13 30.054-85.662a7.738 7.738 0 00-12.074-9.677c-21.573 26.917-33.454 60.776-33.454 95.34 0 84.12 68.437 152.557 152.557 152.557S408.557 340.12 408.557 256 340.12 103.443 256 103.443zM256 0a7.736 7.736 0 00-7.737 7.737v41.375c0 4.274 3.464 7.737 7.737 7.737s7.737-3.463 7.737-7.737V7.737A7.736 7.736 0 00256 0zM159.256 72.962l-20.687-35.831a7.738 7.738 0 00-13.401 7.737l20.687 35.831a7.733 7.733 0 0010.568 2.831 7.735 7.735 0 002.833-10.568zM80.698 145.856l-35.832-20.687a7.737 7.737 0 00-7.737 13.401l35.832 20.687a7.732 7.732 0 0010.568-2.831 7.735 7.735 0 00-2.831-10.57zM49.112 248.263H7.737C3.464 248.263 0 251.726 0 256s3.464 7.737 7.737 7.737h41.376a7.737 7.737 0 10-.001-15.474zM83.53 355.575a7.74 7.74 0 00-10.569-2.832L37.13 373.431a7.738 7.738 0 003.875 14.438 7.696 7.696 0 003.861-1.038l35.832-20.687a7.736 7.736 0 002.832-10.569zM156.425 428.47a7.737 7.737 0 00-10.569 2.832l-20.687 35.832a7.736 7.736 0 002.832 10.568 7.732 7.732 0 0010.568-2.831l20.687-35.832a7.737 7.737 0 00-2.831-10.569zM256 455.152a7.736 7.736 0 00-7.737 7.737v41.375c0 4.274 3.464 7.737 7.737 7.737s7.737-3.463 7.737-7.737v-41.375a7.736 7.736 0 00-7.737-7.737zM386.831 467.134l-20.687-35.832a7.737 7.737 0 00-13.401 7.736l20.687 35.832a7.733 7.733 0 0010.568 2.831 7.733 7.733 0 002.833-10.567zM474.87 373.431l-35.832-20.687a7.737 7.737 0 00-7.737 13.401l35.832 20.687a7.732 7.732 0 0010.568-2.831 7.736 7.736 0 00-2.831-10.57zM504.263 248.263h-41.376c-4.273 0-7.737 3.463-7.737 7.737s3.464 7.737 7.737 7.737h41.376c4.273 0 7.737-3.463 7.737-7.737s-3.464-7.737-7.737-7.737zM477.702 128a7.738 7.738 0 00-10.568-2.832l-35.832 20.687a7.738 7.738 0 003.875 14.438 7.696 7.696 0 003.861-1.038l35.832-20.687A7.736 7.736 0 00477.702 128zM384 34.299a7.737 7.737 0 00-10.569 2.832l-20.687 35.831a7.738 7.738 0 0013.4 7.738l20.687-35.831A7.738 7.738 0 00384 34.299z"/>
</svg>
